Coordinates
version=1
nRows=13
nColumns=40
inDegrees=yes

Units are S.I. units (second, meters, Newtons, ...)
Angles are in degrees.

endheader
time	pelvis_tilt	pelvis_list	pelvis_rotation	pelvis_tx	pelvis_ty	pelvis_tz	hip_flexion_r	hip_adduction_r	hip_rotation_r	knee_angle_r	knee_angle_r_beta	ankle_angle_r	subtalar_angle_r	mtp_angle_r	hip_flexion_l	hip_adduction_l	hip_rotation_l	knee_angle_l	knee_angle_l_beta	ankle_angle_l	subtalar_angle_l	mtp_angle_l	lumbar_extension	lumbar_bending	lumbar_rotation	arm_flex_r	arm_add_r	arm_rot_r	elbow_flex_r	pro_sup_r	wrist_flex_r	wrist_dev_r	arm_flex_l	arm_add_l	arm_rot_l	elbow_flex_l	pro_sup_l	wrist_flex_l	wrist_dev_l
     12.06500000	     -4.47745918	     -4.63521647	      0.59930567	      0.98304190	      0.91465579	      0.47542454	     25.50603253	     -0.04097474	    -14.25580094	     23.87898085	     23.87898085	      5.52766129	     -4.01258851	     -3.71388001	      6.07852716	     -9.76317470	     -4.91244559	     40.38726059	     40.38726059	     14.74312730	    -13.16595268	     -8.52042983	    -11.45300021	      6.43031305	      1.36986421	    -12.01499413	    -11.85933982	      1.12851014	     28.71480395	     46.14611469	      0.00000000	      0.00000000	      5.74380508	    -15.41829313	     -2.54799989	    122.91168757	     48.51359835	      0.00000000	      0.00000000
     12.07657143	     -4.42567096	     -4.91361627	      0.85384002	      0.98227825	      0.91596087	      0.47751407	     24.62421142	      0.29085411	    -14.93804872	     23.40344285	     23.40344285	      6.07958160	     -3.22556632	     -3.99926457	      8.26734811	    -10.38474420	     -4.10583663	     44.61957957	     44.61957957	     12.86912401	    -15.00927670	     -8.00110419	    -11.57215983	      6.80273185	      1.55188745	    -10.64017967	    -12.13760012	      1.28990174	     28.96677510	     46.13552403	      0.00000000	      0.00000000	      4.27947614	    -14.86318127	     -2.00574552	    121.02717178	     48.43893314	      0.00000000	      0.00000000
     12.08814286	     -4.43234115	     -5.22044413	      1.11733609	      0.98135864	      0.91718681	      0.47947236	     23.74971422	      0.65041113	    -15.71975859	     22.80633874	     22.80633874	      6.50670090	     -2.26349446	     -4.27875943	     10.64058041	    -10.99079714	     -3.29907620	     48.78632681	     48.78632681	     11.25191681	    -16.61068999	     -6.89276371	    -11.57432229	      7.20268439	      1.71088557	     -9.17158413	    -12.46635529	      1.46510118	     29.20009966	     46.12564744	      0.00000000	      0.00000000	      2.86135185	    -14.31014464	     -1.50493538	    118.61088716	     48.35683046	      0.00000000	      0.00000000
     12.09971429	     -4.44647818	     -5.34302070	      1.32053370	      0.98025564	      0.91848183	      0.48117464	     22.86974270	      0.75262831	    -16.72891663	     22.18758548	     22.18758548	      6.84995282	     -0.69645557	     -5.00773123	     13.23450689	    -11.21813833	     -2.41793992	     53.17268384	     53.17268384	     12.17636130	    -17.04567358	      0.30713539	    -11.53138373	      7.41738424	      2.43603698	     -7.63906620	    -12.88145994	      2.65311782	     28.49691248	     46.08060704	      0.00000000	      0.00000000	      2.34030903	    -13.44668028	     -0.85013876	    114.27789075	     48.28053905	      0.00000000	      0.00000000
     12.11128571	     -4.42066572	     -5.62128811	      1.55181187	      0.97908888	      0.91969357	      0.48295886	     21.93712014	      1.13427538	    -17.44719569	     21.49144530	     21.49144530	      7.16424390	      0.24478337	     -5.27275689	     15.71383687	    -11.74682509	     -1.78485017	     56.96551864	     56.96551864	     12.14368763	    -17.58563774	      4.09493800	    -11.57090275	      7.77381006	      2.62658302	     -6.03949122	    -13.32803267	      2.95381076	     28.80863989	     46.05833615	      0.00000000	      0.00000000	      1.16677857	    -12.78845882	     -0.64791909	    110.73845163	     48.22886343	      0.00000000	      0.00000000
     12.12285714	     -4.43341910	     -5.89747267	      1.76424670	      0.97781134	      0.92080467	      0.48475420	     21.05540262	      1.56055794	    -18.01589251	     20.76136919	     20.76136919	      7.43803955	      1.01083092	     -5.46098331	     18.27447996	    -12.23094402	     -1.14940490	     60.44040955	     60.44040955	     12.73739170	    -17.91005120	      8.78400229	    -11.60767563	      8.09112942	      2.96695709	     -4.38542545	    -13.76208036	      3.04246093	     28.94408048	     46.05885729	      0.00000000	      0.00000000	      0.14042296	    -12.40790766	      0.04840331	    107.14691978	     48.16720793	      0.00000000	      0.00000000
     12.13442857	     -4.37753215	     -6.15723851	      1.96901502	      0.97654057	      0.92200283	      0.48649759	     20.08800511	      1.99572735	    -18.55222655	     19.99459974	     19.99459974	      7.71073268	      1.79592939	     -5.54048176	     20.56998040	    -12.77808954	     -0.74153255	     63.14507639	     63.14507639	     12.34003017	    -18.38350969	      9.85158983	    -11.70655903	      8.39630324	      3.12546560	     -2.58694456	    -14.19693457	      2.92273885	     29.25371065	     46.07003210	      0.00000000	      0.00000000	     -0.87548510	    -11.79357851	     -0.00829074	    102.93381949	     48.09479309	      0.00000000	      0.00000000
     12.14600000	     -4.38713727	     -6.37347330	      2.14034971	      0.97516744	      0.92305530	      0.48816746	     19.24495013	      2.38785145	    -19.00471585	     19.30500012	     19.30500012	      7.94654236	      2.49250970	     -5.66669821	     22.95500612	    -13.21174426	     -0.31956322	     65.50210994	     65.50210994	     12.66234872	    -18.59914442	     12.05070770	    -11.71799105	      8.63715203	      3.73750352	     -0.87388077	    -14.58841259	      2.65382289	     29.05950338	     46.11169270	      0.00000000	      0.00000000	     -1.32458288	    -10.96843968	      0.14149437	     97.98793142	     48.00535367	      0.00000000	      0.00000000
     12.15757143	     -4.35063887	     -6.58682227	      2.37297263	      0.97380125	      0.92411402	      0.48978696	     18.32984265	      2.81917727	    -19.34582089	     18.53956166	     18.53956166	      8.16447743	      2.94142183	     -5.64828803	     25.18673969	    -13.62630943	      0.09104121	     67.25195896	     67.25195896	     12.61697883	    -18.76233198	     12.52890867	    -11.81238843	      8.82746769	      3.55550322	      1.17364158	    -14.88468342	      2.39908801	     29.60064058	     46.12456586	      0.00000000	      0.00000000	     -2.56081882	    -10.89140761	      0.34720156	     94.17183795	     47.91699257	      0.00000000	      0.00000000
     12.16914286	     -4.27688815	     -6.70638557	      2.58166505	      0.97243246	      0.92521196	      0.49129270	     17.38425365	      3.15344419	    -19.68352689	     17.79705158	     17.79705158	      8.39304507	      3.42262456	     -5.68364481	     27.26779333	    -13.87987970	      0.45167825	     68.47276381	     68.47276381	     12.76546263	    -18.86435944	     13.15212608	    -11.89017983	      8.94647995	      3.55935099	      3.28584988	    -15.13259710	      2.12880264	     29.86623906	     46.15037510	      0.00000000	      0.00000000	     -3.24972613	    -10.47655776	      0.23690863	     89.03473789	     47.82923549	      0.00000000	      0.00000000
     12.18071429	     -4.18223899	     -6.66119496	      2.68289866	      0.97098390	      0.92640925	      0.49258570	     16.50793913	      3.29326094	    -19.81500783	     17.22627398	     17.22627398	      8.58562056	      3.94182795	     -5.85942502	     29.14778215	    -13.90924884	      0.63919519	     69.15211199	     69.15211199	     13.19422946	    -18.86818444	     14.33086201	    -12.03290998	      8.90920386	      4.49619464	      5.19845203	    -15.53095343	      1.41265337	     29.18659966	     46.24347973	      0.00000000	      0.00000000	     -2.76034732	     -9.31312104	     -0.10185539	     82.06509729	     47.73772603	      0.00000000	      0.00000000
     12.19228571	     -4.08588943	     -6.63077647	      2.86217688	      0.96954136	      0.92745757	      0.49378048	     15.60112159	      3.46278434	    -19.96069781	     16.58932029	     16.58932029	      8.79119479	      4.29796975	     -5.95195610	     30.91648469	    -13.89553821	      0.87663601	     69.29852875	     69.29852875	     13.32894287	    -18.85583300	     14.64675774	    -12.16481711	      8.86520216	      4.66461830	      7.41811833	    -15.68427142	      0.55722414	     29.24696977	     46.31580026	      0.00000000	      0.00000000	     -2.98584931	     -8.89198396	     -0.22977149	     76.23687829	     47.64957342	      0.00000000	      0.00000000
     12.20385714	     -4.01799437	     -6.58508805	      3.03888205	      0.96805941	      0.92832978	      0.49484297	     14.76194054	      3.60804201	    -20.05800291	     16.01018898	     16.01018898	      8.99135035	      4.55732417	     -6.07451834	     32.58058819	    -13.83263854	      1.07116058	     68.96164904	     68.96164904	     13.32599233	    -18.82110144	     14.60471333	    -12.25705989	      8.80582643	      4.84126552	      9.66320557	    -15.75198760	     -0.73018374	     29.36680006	     46.40895784	      0.00000000	      0.00000000	     -3.07245440	     -8.50011535	     -0.37157376	     70.21123156	     47.56331583	      0.00000000	      0.00000000
